<svg width="204" height="246" viewBox="0 0 204 246" fill="none" xmlns="http://www.w3.org/2000/svg">
<mask id="mask0_595_3471" style="mask-type:luminance" maskUnits="userSpaceOnUse" x="126" y="0" width="78" height="78">
<path d="M126.53 0H203.783V77.2536H165.747V38.0361H126.53V0Z" fill="white"/>
</mask>
<g mask="url(#mask0_595_3471)">
<path d="M203.783 0H126.53V77.2536H203.783V0Z" fill="url(#paint0_linear_595_3471)"/>
</g>
<mask id="mask1_595_3471" style="mask-type:luminance" maskUnits="userSpaceOnUse" x="63" y="63" width="78" height="78">
<path d="M129.196 129.195C114.117 144.273 89.6683 144.273 74.5896 129.195C59.5108 114.116 59.5108 89.6673 74.5896 74.5886C89.6683 59.5099 114.117 59.5099 129.196 74.5886C144.274 89.6673 144.274 114.116 129.196 129.195Z" fill="white"/>
</mask>
<g mask="url(#mask1_595_3471)">
<path d="M144.274 59.5081H59.509V144.273H144.274V59.5081Z" fill="url(#paint1_linear_595_3471)"/>
</g>
<mask id="mask2_595_3471" style="mask-type:luminance" maskUnits="userSpaceOnUse" x="0" y="0" width="204" height="246">
<path d="M147.044 147.043C122.099 171.988 81.6849 171.988 56.7383 147.043C31.7933 122.098 31.7933 81.6845 56.7383 56.7379C68.779 44.6971 84.8655 38.0344 101.891 38.0344V0C75.8153 0 49.738 9.94817 29.8433 29.8429C-9.94776 69.6339 -9.94776 134.149 29.8433 173.94L101.891 245.987L173.939 173.94C193.835 154.043 203.781 127.968 203.781 101.892H165.745C165.745 118.918 159.083 135.004 147.042 147.045" fill="white"/>
</mask>
<g mask="url(#mask2_595_3471)">
<path d="M203.783 0H-9.94775V245.987H203.783V0Z" fill="url(#paint2_linear_595_3471)"/>
<path d="M203.783 0H-9.94775V245.987H203.783V0Z" fill="black" fill-opacity="0.2"/>
</g>
<defs>
<linearGradient id="paint0_linear_595_3471" x1="1.44406" y1="189.595" x2="308.607" y2="-93.6564" gradientUnits="userSpaceOnUse">
<stop stop-color="#EC1C24"/>
<stop offset="1" stop-color="#FFF100"/>
</linearGradient>
<linearGradient id="paint1_linear_595_3471" x1="3.89694" y1="192.257" x2="311.06" y2="-90.9959" gradientUnits="userSpaceOnUse">
<stop stop-color="#EC1C24"/>
<stop offset="1" stop-color="#FFF100"/>
</linearGradient>
<linearGradient id="paint2_linear_595_3471" x1="-18.0115" y1="236.392" x2="257.883" y2="-35.8255" gradientUnits="userSpaceOnUse">
<stop stop-color="#021B8C"/>
<stop offset="1" stop-color="#15AFF7"/>
</linearGradient>
</defs>
</svg>
