<svg width="43" height="29" viewBox="0 0 43 29" fill="none" xmlns="http://www.w3.org/2000/svg">
<path d="M42.2198 11.4494C41.9515 11.0022 39.3029 9.85815 39.3029 9.85815C39.7636 9.62022 40.0784 9.57102 40.0784 8.58709C40.0784 7.5137 40.0731 7.15591 39.3575 7.15591H36.9298C36.92 7.13444 36.9093 7.11207 36.8994 7.08971C35.3323 3.6674 35.1221 2.80243 32.7848 1.63781C29.6496 0.0787147 23.7719 0 21.4677 0C19.1635 0 13.2858 0.0787147 10.1533 1.63781C7.81335 2.80064 7.87149 3.39905 6.03869 7.08971C6.03869 7.09955 6.01991 7.12549 6.00291 7.15591H3.57259C2.86236 7.15591 2.857 7.5137 2.857 8.58709C2.857 9.57102 3.17185 9.62022 3.63252 9.85815C3.63252 9.85815 1.07339 11.0917 0.71559 11.4494C0.357795 11.8072 0 14.3118 0 18.6054C0 22.8989 0.357795 27.1924 0.357795 27.1924H1.42581C1.42581 28.4447 1.61008 28.6236 2.14677 28.6236H9.30268C9.83937 28.6236 10.0183 28.4447 10.0183 27.1924H32.9172C32.9172 28.4447 33.0961 28.6236 33.6328 28.6236H40.9676C41.3254 28.6236 41.5042 28.3553 41.5042 27.1924H42.5776C42.5776 27.1924 42.9354 22.8094 42.9354 18.6054C42.9354 14.4013 42.4882 11.8967 42.2198 11.4494ZM9.77318 15.4693C8.14406 15.6474 6.50662 15.7388 4.8678 15.743C3.04126 15.743 2.97865 15.8602 2.84984 14.7197C2.80139 14.1977 2.8167 13.6717 2.89546 13.1534L2.95181 12.8806H3.22016C4.29354 12.8806 5.30163 12.9262 7.2051 13.4871C8.17323 13.7776 9.08382 14.2333 9.89662 14.8342C10.2866 15.1169 10.3761 15.3852 10.3761 15.3852L9.77318 15.4693ZM31.8813 21.9096L31.486 22.8989H11.4494C11.4494 22.8989 11.4843 22.8443 11.0022 21.8989C10.6444 21.1994 11.0917 20.7521 11.7992 20.4981C13.1695 20.0043 17.1742 18.6054 21.4677 18.6054C25.7613 18.6054 29.8455 19.8111 31.1729 20.4981C31.6649 20.7521 32.2758 20.931 31.8813 21.915V21.9096ZM8.893 9.69715C8.60408 9.71378 8.31454 9.71593 8.02535 9.70341C8.25881 9.28836 8.38851 8.82592 8.6166 8.34289C9.33219 6.82226 10.1507 5.10127 11.6078 4.37584C13.7134 3.3275 18.0776 2.85521 21.4677 2.85521C24.8578 2.85521 29.222 3.32392 31.3277 4.37584C32.7848 5.10127 33.5997 6.82316 34.3188 8.34289C34.5487 8.83039 34.6766 9.29642 34.9163 9.71414C34.7374 9.72398 34.5317 9.71414 34.0406 9.69715H8.893ZM39.9961 14.7161C39.8047 15.8324 39.9836 15.743 38.0676 15.743C36.4288 15.7388 34.7914 15.6474 33.1623 15.4693C32.9073 15.4237 32.8349 14.9934 33.0388 14.8342C33.8475 14.2267 34.7593 13.7703 35.7303 13.4871C37.6338 12.9262 38.7054 12.8511 39.7636 12.8887C39.8346 12.8914 39.9022 12.9203 39.9532 12.9698C40.0043 13.0194 40.0352 13.0861 40.04 13.157C40.0906 13.6777 40.0759 14.2027 39.9961 14.7197V14.7161Z" fill="#0A59A1"/>
</svg>
