<svg width="22" height="22" viewBox="0 0 22 22" fill="none" xmlns="http://www.w3.org/2000/svg">
<path fill-rule="evenodd" clip-rule="evenodd" d="M6.30852 0.166382H15.701C19.3735 0.166382 21.8327 2.74472 21.8327 6.57971V15.4316C21.8327 19.2547 19.3735 21.833 15.701 21.833H6.30852C2.63602 21.833 0.166016 19.2547 0.166016 15.4316V6.57971C0.166016 2.74472 2.63602 0.166382 6.30852 0.166382ZM10.3818 14.2388L15.5277 9.093C15.896 8.72467 15.896 8.12883 15.5277 7.74967C15.1593 7.38133 14.5527 7.38133 14.1843 7.74967L9.71015 12.2238L7.81432 10.328C7.44599 9.95967 6.83932 9.95967 6.47099 10.328C6.10265 10.6963 6.10265 11.2922 6.47099 11.6713L9.04932 14.2388C9.23349 14.423 9.47182 14.5097 9.71015 14.5097C9.95932 14.5097 10.1977 14.423 10.3818 14.2388Z" fill="white"/>
</svg>
