<svg width="11" height="10" viewBox="0 0 21 20" fill="none" xmlns="http://www.w3.org/2000/svg">
<path fill-rule="evenodd" clip-rule="evenodd" d="M8.50211 12.6142C8.34211 12.6142 8.18211 12.5534 8.06044 12.4309C7.81628 12.1867 7.81628 11.7917 8.06044 11.5476L12.0538 7.55422C12.2979 7.31005 12.6929 7.31005 12.9371 7.55422C13.1813 7.79839 13.1813 8.19339 12.9371 8.43755L8.94378 12.4309C8.82211 12.5534 8.66211 12.6142 8.50211 12.6142Z" fill="white"/>
<path fill-rule="evenodd" clip-rule="evenodd" d="M12.4971 12.6184C12.3371 12.6184 12.1771 12.5576 12.0555 12.4351L8.0588 8.43755C7.81463 8.19339 7.81463 7.79839 8.0588 7.55422C8.3038 7.31005 8.6988 7.31005 8.94213 7.55422L12.9388 11.5517C13.183 11.7959 13.183 12.1909 12.9388 12.4351C12.8171 12.5576 12.6563 12.6184 12.4971 12.6184Z" fill="white"/>
<path fill-rule="evenodd" clip-rule="evenodd" d="M6.88752 2.91797C4.77919 2.91797 3.41669 4.36214 3.41669 6.59797V13.4046C3.41669 15.6405 4.77919 17.0846 6.88752 17.0846H14.1109C16.22 17.0846 17.5834 15.6405 17.5834 13.4046V6.59797C17.5834 4.36214 16.22 2.91797 14.1117 2.91797H6.88752ZM14.1109 18.3346H6.88752C4.06335 18.3346 2.16669 16.353 2.16669 13.4046V6.59797C2.16669 3.64964 4.06335 1.66797 6.88752 1.66797H14.1117C16.9359 1.66797 18.8334 3.64964 18.8334 6.59797V13.4046C18.8334 16.353 16.9359 18.3346 14.1109 18.3346Z" fill="white"/>
</svg>
