<svg width="25" height="24" viewBox="0 0 25 24" fill="none" xmlns="http://www.w3.org/2000/svg">
<g clip-path="url(#clip0_1538_1245)">
<path d="M24.0078 12.2261C24.0078 11.2429 23.9295 10.5253 23.7598 9.78125H12.7295V14.2192H19.2041C19.0736 15.3221 18.3687 16.9831 16.8022 18.0992L16.7802 18.2478L20.2678 20.998L20.5095 21.0225C22.7285 18.9363 24.0078 15.8669 24.0078 12.2261Z" fill="#4285F4"/>
<path d="M12.7296 23.9178C15.9016 23.9178 18.5645 22.8548 20.5095 21.0211L16.8023 18.0978C15.8102 18.8021 14.4787 19.2937 12.7296 19.2937C9.6228 19.2937 6.98598 17.2076 6.04603 14.3242L5.90825 14.3361L2.2818 17.193L2.23438 17.3272C4.1663 21.2337 8.13462 23.9178 12.7296 23.9178Z" fill="#34A853"/>
<path d="M6.04621 14.3228C5.7982 13.5787 5.65466 12.7814 5.65466 11.9576C5.65466 11.1338 5.7982 10.3365 6.03316 9.59244L6.02659 9.43397L2.3547 6.53125L2.23457 6.58942C1.43833 8.21052 0.981445 10.0309 0.981445 11.9576C0.981445 13.8843 1.43833 15.7047 2.23457 17.3258L6.04621 14.3228Z" fill="#FBBC05"/>
<path d="M12.7295 4.62403C14.9356 4.62403 16.4237 5.59401 17.2722 6.40461L20.5878 3.10928C18.5515 1.1826 15.9015 0 12.7295 0C8.13462 0 4.1663 2.68406 2.23438 6.59056L6.03297 9.59359C6.98597 6.7102 9.62279 4.62403 12.7295 4.62403Z" fill="#EB4335"/>
</g>
<defs>
<clipPath id="clip0_1538_1245">
<rect width="23.04" height="24" fill="white" transform="translate(0.97998)"/>
</clipPath>
</defs>
</svg>
