<svg width="25" height="28" viewBox="0 0 25 28" fill="none" xmlns="http://www.w3.org/2000/svg">
<path d="M23.1637 21.1023C24.3676 18.925 25.0034 16.4194 25.0002 13.8647C25.0034 11.3098 24.3676 8.80378 23.1637 6.62637L23.157 6.61422C22.0401 4.59325 20.475 2.92402 18.6113 1.76603C16.7476 0.608044 14.6475 0 12.5118 0C10.376 0 8.27593 0.608044 6.41222 1.76603C4.54851 2.92402 2.98343 4.59325 1.86654 6.61422L1.85981 6.62637C0.658924 8.80524 0.0234375 11.31 0.0234375 13.8644C0.0234375 16.4187 0.658924 18.9235 1.85981 21.1023L1.86682 21.1148C2.98375 23.1357 4.54883 24.8048 6.41253 25.9627C8.27623 27.1207 10.3763 27.7286 12.512 27.7286C14.6477 27.7286 16.7477 27.1205 18.6114 25.9626C20.4751 24.8046 22.0401 23.1354 23.157 21.1145L23.1637 21.1023ZM14.108 25.3522C13.87 25.6072 13.5961 25.8173 13.297 25.9741C13.0516 26.1035 12.7833 26.1707 12.5116 26.1707C12.2399 26.1707 11.9717 26.1035 11.7263 25.9741C11.1573 25.6515 10.6702 25.1757 10.3096 24.5902C9.57314 23.4086 9.0274 22.0939 8.69675 20.7048C9.96711 20.618 11.2388 20.5737 12.5118 20.5721C13.7842 20.5721 15.0559 20.6163 16.3271 20.7048C16.144 21.419 15.9154 22.1178 15.6429 22.7959C15.284 23.7496 14.7629 24.6176 14.108 25.3522ZM1.45092 14.6432H6.48812C6.52094 16.2036 6.67332 17.758 6.94359 19.2897C5.56659 19.4243 4.19314 19.6092 2.82324 19.8443C2.02096 18.2465 1.55199 16.4691 1.45092 14.6432ZM2.82324 7.88473C4.19258 8.12027 5.5665 8.30512 6.945 8.4393C6.67425 9.97081 6.52159 11.5252 6.48868 13.0855H1.45092C1.55204 11.2597 2.021 9.48247 2.82324 7.88473ZM10.9155 2.37649C11.1535 2.12151 11.4275 1.91145 11.7265 1.75463C11.9719 1.62519 12.2402 1.55803 12.5119 1.55803C12.7836 1.55803 13.0519 1.62519 13.2973 1.75463C13.8663 2.07725 14.3533 2.55306 14.7139 3.13854C15.4504 4.32007 15.9961 5.63478 16.3268 7.02391C15.0564 7.11073 13.7847 7.15497 12.5118 7.15663C11.2393 7.15663 9.96758 7.11239 8.69647 7.02391C8.87952 6.30971 9.10817 5.6109 9.38067 4.93277C9.73949 3.97907 10.2606 3.11113 10.9155 2.37649ZM23.5726 13.0855H18.5354C18.5026 11.5251 18.3502 9.97067 18.0799 8.43898C19.4569 8.30439 20.8304 8.11954 22.2003 7.88442C23.0026 9.48225 23.4715 11.2596 23.5726 13.0855ZM8.35493 19.1685C8.08055 17.6782 7.92559 16.1639 7.89188 14.6432H17.1319C17.0985 16.164 16.9439 17.6784 16.6697 19.1688C15.2852 19.0679 13.8992 19.0164 12.5118 19.0143C11.1254 19.0143 9.73979 19.0657 8.35493 19.1685ZM16.6686 8.56018C16.943 10.0505 17.0979 11.5648 17.1317 13.0855H7.89188C7.92528 11.5647 8.07995 10.0503 8.35409 8.55986C9.73858 8.66081 11.1246 8.71232 12.512 8.7144C13.8984 8.7144 15.284 8.66289 16.6689 8.55986L16.6686 8.56018ZM18.5349 14.6432H23.5726C23.4715 16.469 23.0025 18.2462 22.2003 19.844C20.8308 19.6084 19.4568 19.4236 18.0785 19.2894C18.3493 17.7579 18.5019 16.2035 18.5349 14.6432ZM21.3589 6.45097C20.1615 6.64268 18.9607 6.79451 17.7564 6.90646C17.5399 6.01169 17.2608 5.13709 16.9215 4.29066C16.6116 3.5118 16.2217 2.77529 15.7596 2.09578C17.9928 2.85617 19.9525 4.38045 21.3589 6.45097ZM4.6735 5.16239C5.9546 3.73881 7.5307 2.68584 9.26364 2.09578C9.23726 2.13379 9.21032 2.16993 9.1845 2.20825C8.29375 3.6317 7.64491 5.22395 7.26998 6.90646C6.06547 6.79326 4.86377 6.64143 3.66488 6.45097C3.97404 5.99624 4.31105 5.5657 4.6735 5.16239ZM3.66488 21.2777C4.86209 21.086 6.06295 20.9342 7.26745 20.8223C7.48388 21.717 7.76304 22.5916 8.10236 23.438C8.41221 24.2169 8.80208 24.9534 9.2642 25.6329C7.03098 24.8725 5.07127 23.3483 3.66488 21.2777ZM20.3506 22.5663C19.0695 23.9899 17.4934 25.0429 15.7604 25.6329C15.7868 25.5949 15.8138 25.5588 15.8396 25.5205C16.7303 24.097 17.3792 22.5048 17.7541 20.8223C18.9586 20.9355 20.1603 21.0873 21.3592 21.2777C21.05 21.7325 20.713 22.163 20.3506 22.5663Z" fill="url(#paint0_linear_322_3406)"/>
<path d="M23.1637 21.1023C24.3676 18.925 25.0034 16.4194 25.0002 13.8647C25.0034 11.3098 24.3676 8.80378 23.1637 6.62637L23.157 6.61422C22.0401 4.59325 20.475 2.92402 18.6113 1.76603C16.7476 0.608044 14.6475 0 12.5118 0C10.376 0 8.27593 0.608044 6.41222 1.76603C4.54851 2.92402 2.98343 4.59325 1.86654 6.61422L1.85981 6.62637C0.658924 8.80524 0.0234375 11.31 0.0234375 13.8644C0.0234375 16.4187 0.658924 18.9235 1.85981 21.1023L1.86682 21.1148C2.98375 23.1357 4.54883 24.8048 6.41253 25.9627C8.27623 27.1207 10.3763 27.7286 12.512 27.7286C14.6477 27.7286 16.7477 27.1205 18.6114 25.9626C20.4751 24.8046 22.0401 23.1354 23.157 21.1145L23.1637 21.1023ZM14.108 25.3522C13.87 25.6072 13.5961 25.8173 13.297 25.9741C13.0516 26.1035 12.7833 26.1707 12.5116 26.1707C12.2399 26.1707 11.9717 26.1035 11.7263 25.9741C11.1573 25.6515 10.6702 25.1757 10.3096 24.5902C9.57314 23.4086 9.0274 22.0939 8.69675 20.7048C9.96711 20.618 11.2388 20.5737 12.5118 20.5721C13.7842 20.5721 15.0559 20.6163 16.3271 20.7048C16.144 21.419 15.9154 22.1178 15.6429 22.7959C15.284 23.7496 14.7629 24.6176 14.108 25.3522ZM1.45092 14.6432H6.48812C6.52094 16.2036 6.67332 17.758 6.94359 19.2897C5.56659 19.4243 4.19314 19.6092 2.82324 19.8443C2.02096 18.2465 1.55199 16.4691 1.45092 14.6432ZM2.82324 7.88473C4.19258 8.12027 5.5665 8.30512 6.945 8.4393C6.67425 9.97081 6.52159 11.5252 6.48868 13.0855H1.45092C1.55204 11.2597 2.021 9.48247 2.82324 7.88473ZM10.9155 2.37649C11.1535 2.12151 11.4275 1.91145 11.7265 1.75463C11.9719 1.62519 12.2402 1.55803 12.5119 1.55803C12.7836 1.55803 13.0519 1.62519 13.2973 1.75463C13.8663 2.07725 14.3533 2.55306 14.7139 3.13854C15.4504 4.32007 15.9961 5.63478 16.3268 7.02391C15.0564 7.11073 13.7847 7.15497 12.5118 7.15663C11.2393 7.15663 9.96758 7.11239 8.69647 7.02391C8.87952 6.30971 9.10817 5.6109 9.38067 4.93277C9.73949 3.97907 10.2606 3.11113 10.9155 2.37649ZM23.5726 13.0855H18.5354C18.5026 11.5251 18.3502 9.97067 18.0799 8.43898C19.4569 8.30439 20.8304 8.11954 22.2003 7.88442C23.0026 9.48225 23.4715 11.2596 23.5726 13.0855ZM8.35493 19.1685C8.08055 17.6782 7.92559 16.1639 7.89188 14.6432H17.1319C17.0985 16.164 16.9439 17.6784 16.6697 19.1688C15.2852 19.0679 13.8992 19.0164 12.5118 19.0143C11.1254 19.0143 9.73979 19.0657 8.35493 19.1685ZM16.6686 8.56018C16.943 10.0505 17.0979 11.5648 17.1317 13.0855H7.89188C7.92528 11.5647 8.07995 10.0503 8.35409 8.55986C9.73858 8.66081 11.1246 8.71232 12.512 8.7144C13.8984 8.7144 15.284 8.66289 16.6689 8.55986L16.6686 8.56018ZM18.5349 14.6432H23.5726C23.4715 16.469 23.0025 18.2462 22.2003 19.844C20.8308 19.6084 19.4568 19.4236 18.0785 19.2894C18.3493 17.7579 18.5019 16.2035 18.5349 14.6432ZM21.3589 6.45097C20.1615 6.64268 18.9607 6.79451 17.7564 6.90646C17.5399 6.01169 17.2608 5.13709 16.9215 4.29066C16.6116 3.5118 16.2217 2.77529 15.7596 2.09578C17.9928 2.85617 19.9525 4.38045 21.3589 6.45097ZM4.6735 5.16239C5.9546 3.73881 7.5307 2.68584 9.26364 2.09578C9.23726 2.13379 9.21032 2.16993 9.1845 2.20825C8.29375 3.6317 7.64491 5.22395 7.26998 6.90646C6.06547 6.79326 4.86377 6.64143 3.66488 6.45097C3.97404 5.99624 4.31105 5.5657 4.6735 5.16239ZM3.66488 21.2777C4.86209 21.086 6.06295 20.9342 7.26745 20.8223C7.48388 21.717 7.76304 22.5916 8.10236 23.438C8.41221 24.2169 8.80208 24.9534 9.2642 25.6329C7.03098 24.8725 5.07127 23.3483 3.66488 21.2777ZM20.3506 22.5663C19.0695 23.9899 17.4934 25.0429 15.7604 25.6329C15.7868 25.5949 15.8138 25.5588 15.8396 25.5205C16.7303 24.097 17.3792 22.5048 17.7541 20.8223C18.9586 20.9355 20.1603 21.0873 21.3592 21.2777C21.05 21.7325 20.713 22.163 20.3506 22.5663Z" fill="#7B7A7D"/>
<defs>
<linearGradient id="paint0_linear_322_3406" x1="-0.918899" y1="26.6469" x2="30.1758" y2="-5.15935" gradientUnits="userSpaceOnUse">
<stop stop-color="#021B8C"/>
<stop offset="1" stop-color="#15AFF7"/>
</linearGradient>
</defs>
</svg>
