<svg width="16" height="19" viewBox="0 0 16 19" fill="none" xmlns="http://www.w3.org/2000/svg">
<path d="M12.6021 6.94111H12.1021V7.30883L12.4531 7.4184L12.6021 6.94111ZM3.39758 6.94111L3.54664 7.41838L3.89758 7.30877V6.94111H3.39758ZM3.39758 5.66333L2.89758 5.66162V5.66333H3.39758ZM11.1202 6.76141V7.26141H11.6202V6.76141H11.1202ZM4.87944 6.76141H4.37944V7.26141H4.87944V6.76141ZM4.87944 5.64677L4.37944 5.64423V5.64677H4.87944ZM13.1021 6.94111V5.66333H12.1021V6.94111H13.1021ZM15.5832 10.2403C15.5832 8.45324 14.3791 6.97198 12.7511 6.46382L12.4531 7.4184C13.6957 7.80627 14.5832 8.92363 14.5832 10.2403H15.5832ZM15.5832 14.3544V10.2403H14.5832V14.3544H15.5832ZM11.5267 18.3333C13.756 18.3333 15.5832 16.5622 15.5832 14.3544H14.5832C14.5832 15.9891 13.2247 17.3333 11.5267 17.3333V18.3333ZM4.47384 18.3333H11.5267V17.3333H4.47384V18.3333ZM0.416504 14.3544C0.416504 16.5622 2.24372 18.3333 4.47384 18.3333V17.3333C2.77488 17.3333 1.4165 15.989 1.4165 14.3544H0.416504ZM0.416504 10.2403V14.3544H1.4165V10.2403H0.416504ZM3.24852 6.46385C1.62158 6.97198 0.416504 8.45311 0.416504 10.2403H1.4165C1.4165 8.92376 2.30468 7.80627 3.54664 7.41838L3.24852 6.46385ZM2.89758 5.66333V6.94111H3.89758V5.66333H2.89758ZM7.98714 0.666656C5.19657 0.666656 2.90701 2.89355 2.89758 5.66162L3.89757 5.66503C3.90507 3.46441 5.73088 1.66666 7.98714 1.66666V0.666656ZM13.1021 5.66333C13.1021 2.89121 10.8088 0.666656 7.98714 0.666656V1.66666C10.2801 1.66666 12.1021 3.46675 12.1021 5.66333H13.1021ZM11.6202 5.66333C11.6202 3.69566 9.98862 2.11586 8.00407 2.11586V3.11586C9.45746 3.11586 10.6202 4.26884 10.6202 5.66333H11.6202ZM11.6202 6.76141V5.66333H10.6202V6.76141H11.6202ZM4.87944 7.26141H11.1202V6.26141H4.87944V7.26141ZM4.37944 5.64677V6.76141H5.37944V5.64677H4.37944ZM8.00407 2.11586C6.02165 2.11586 4.38937 3.68473 4.37945 5.64423L5.37944 5.6493C5.38645 4.26321 6.54855 3.11586 8.00407 3.11586V2.11586ZM7.9956 14.4412C8.6761 14.4412 9.24077 13.9048 9.24077 13.2124H8.24077C8.24077 13.3316 8.14495 13.4412 7.9956 13.4412V14.4412ZM6.7589 13.2124C6.7589 13.9011 7.31981 14.4412 7.9956 14.4412V13.4412C7.85848 13.4412 7.7589 13.3353 7.7589 13.2124H6.7589ZM6.7589 11.374V13.2124H7.7589V11.374H6.7589ZM7.9956 10.1536C7.32357 10.1536 6.7589 10.6899 6.7589 11.374H7.7589C7.7589 11.2631 7.85472 11.1536 7.9956 11.1536V10.1536ZM9.24077 11.374C9.24077 10.6863 8.67233 10.1536 7.9956 10.1536V11.1536C8.14872 11.1536 8.24077 11.2668 8.24077 11.374H9.24077ZM9.24077 13.2124V11.374H8.24077V13.2124H9.24077Z" fill="#424242"/>
</svg>
