<svg width="25" height="24" viewBox="0 0 25 24" fill="none" xmlns="http://www.w3.org/2000/svg">
<path fill-rule="evenodd" clip-rule="evenodd" d="M9.69416 0.738365C10.3974 0.257362 11.2295 0 12.0815 0C12.9334 0 13.7655 0.257362 14.4688 0.738365L22.3217 6.1122C22.8891 6.5003 23.3533 7.0209 23.6742 7.62887C23.995 8.23685 24.1627 8.91388 24.1629 9.60132V19.7715C24.1629 20.893 23.7174 21.9685 22.9244 22.7615C22.1314 23.5545 21.0559 24 19.9344 24H4.22851C3.10704 24 2.0315 23.5545 1.2385 22.7615C0.445502 21.9685 0 20.893 0 19.7715V9.60132C0.000165932 8.91388 0.16793 8.23685 0.488761 7.62887C0.809592 7.0209 1.27381 6.5003 1.84121 6.1122L9.69416 0.738365ZM9.06109 18.5633C8.90088 18.5633 8.74723 18.627 8.63395 18.7403C8.52066 18.8536 8.45702 19.0072 8.45702 19.1674C8.45702 19.3276 8.52066 19.4813 8.63395 19.5946C8.74723 19.7078 8.90088 19.7715 9.06109 19.7715H15.1018C15.262 19.7715 15.4157 19.7078 15.529 19.5946C15.6423 19.4813 15.7059 19.3276 15.7059 19.1674C15.7059 19.0072 15.6423 18.8536 15.529 18.7403C15.4157 18.627 15.262 18.5633 15.1018 18.5633H9.06109Z" fill="white"/>
</svg>
