<svg width="28" height="28" viewBox="0 0 28 28" fill="none" xmlns="http://www.w3.org/2000/svg">
<path d="M13.923 3.55828C14.8435 3.55828 15.7264 3.92492 16.3772 4.57755C17.0281 5.23018 17.3938 6.11533 17.3938 7.03828V13.9983C17.3938 14.9212 17.0281 15.8064 16.3772 16.459C15.7264 17.1116 14.8435 17.4783 13.923 17.4783C13.0025 17.4783 12.1197 17.1116 11.4688 16.459C10.8179 15.8064 10.4523 14.9212 10.4523 13.9983V7.03828C10.4523 6.11533 10.8179 5.23018 11.4688 4.57755C12.1197 3.92492 13.0025 3.55828 13.923 3.55828ZM13.923 1.23828C13.1634 1.23828 12.4112 1.3883 11.7094 1.67978C11.0075 1.97126 10.3699 2.39848 9.8327 2.93706C9.29555 3.47564 8.86946 4.11503 8.57876 4.81872C8.28805 5.52241 8.13843 6.27661 8.13843 7.03828V13.9983C8.13843 15.5365 8.74788 17.0118 9.8327 18.0995C10.9175 19.1872 12.3889 19.7983 13.923 19.7983C15.4572 19.7983 16.9286 19.1872 18.0134 18.0995C19.0982 17.0118 19.7077 15.5365 19.7077 13.9983V7.03828C19.7077 5.50003 19.0982 4.02477 18.0134 2.93706C16.9286 1.84935 15.4572 1.23828 13.923 1.23828V1.23828ZM25.2701 16.2742L23.0003 15.8183C22.5787 17.9208 21.4442 19.812 19.7894 21.1708C18.1347 22.5295 16.0619 23.272 13.923 23.272C11.7842 23.272 9.71137 22.5295 8.05664 21.1708C6.40192 19.812 5.2674 17.9208 4.84583 15.8183L2.57594 16.2742C3.63106 21.5905 8.31197 25.5983 13.923 25.5983C19.5341 25.5983 24.215 21.5905 25.2701 16.2742Z" fill="#FE8B0A"/>
</svg>
