<svg width="21" height="24" viewBox="0 0 21 24" fill="none" xmlns="http://www.w3.org/2000/svg">
<path d="M10.0992 0C7.98206 0 5.95162 0.841039 4.45456 2.3381C2.9575 3.83516 2.11646 5.8656 2.11646 7.98276V14.2093L0.349608 16.8702C0.137832 17.1968 0.0177101 17.5742 0.0018126 17.9631C-0.0140849 18.3519 0.0748264 18.7379 0.259242 19.0806C0.443659 19.4234 0.7168 19.7102 1.05008 19.9112C1.38337 20.1122 1.76454 20.2198 2.15371 20.223H18.0447C18.4364 20.2217 18.8205 20.1145 19.1562 19.9127C19.4919 19.7109 19.7667 19.4221 19.9517 19.0768C20.1366 18.7315 20.2246 18.3426 20.2065 17.9514C20.1884 17.5601 20.0648 17.181 19.8488 16.8543L18.082 14.2093V7.98276C18.082 5.8656 17.2409 3.83516 15.7439 2.3381C14.2468 0.841039 12.2164 0 10.0992 0ZM10.0992 23.4161C10.7589 23.4154 11.4022 23.2103 11.9406 22.8291C12.479 22.4479 12.8862 21.9093 13.1061 21.2874H7.09238C7.31228 21.9093 7.71942 22.4479 8.25784 22.8291C8.79626 23.2103 9.43953 23.4154 10.0992 23.4161Z" fill="#0A5AA2"/>
</svg>
