<svg width="21" height="25" viewBox="0 0 21 25" fill="none" xmlns="http://www.w3.org/2000/svg">
<path d="M10.5 0.125L19.7441 2.17925C20.2582 2.294 20.625 2.74963 20.625 3.27725V14.5126C20.625 16.7694 19.4966 18.8776 17.619 20.1286L10.5 24.875L3.381 20.1286C1.50225 18.8765 0.375 16.7694 0.375 14.5138V3.27725C0.375 2.74963 0.74175 2.294 1.25587 2.17925L10.5 0.125ZM10.5 2.43012L2.625 4.1795V14.5126C2.625 16.0167 3.3765 17.4219 4.62862 18.2566L10.5 22.1716L16.3714 18.2566C17.6235 17.4219 18.375 16.0179 18.375 14.5138V4.1795L10.5 2.43125V2.43012ZM15.5085 8.24975L17.1004 9.8405L9.94088 17L5.1675 12.2266L6.75825 10.6359L9.93975 13.8174L15.5085 8.24862V8.24975Z" fill="#00C853"/>
</svg>
