<svg width="28" height="28" viewBox="0 0 28 28" fill="none" xmlns="http://www.w3.org/2000/svg">
<circle cx="12.5" cy="12.5" r="12.5" transform="matrix(-1 0 0 1 25 3)" fill="white"/>
<path d="M28 15C28 13.0302 27.612 11.0796 26.8582 9.25974C26.1044 7.43986 24.9995 5.78627 23.6066 4.39339C22.2137 3.00051 20.5601 1.89562 18.7402 1.1418C16.9204 0.38798 14.9698 -3.78062e-06 13 0L13 15L28 15Z" fill="#EAEAEA"/>
<path d="M28 13.5C28 11.7272 27.6508 9.97166 26.9724 8.33377C26.2939 6.69587 25.2995 5.20764 24.0459 3.95405C22.7923 2.70046 21.3041 1.70606 19.6662 1.02762C18.0283 0.349182 16.2728 -3.40255e-06 14.5 0L14.5 13.5L28 13.5Z" fill="#EAEAEA"/>
</svg>
