<svg width="15" height="17" viewBox="0 0 15 17" fill="none" xmlns="http://www.w3.org/2000/svg">
<path fill-rule="evenodd" clip-rule="evenodd" d="M11.6856 4.49667V5.77445C13.1209 6.22247 14.1667 7.52178 14.1667 9.07367V13.1878C14.1667 15.109 12.5739 16.6667 10.6102 16.6667H3.55733C1.5928 16.6667 0 15.109 0 13.1878V9.07367C0 7.52178 1.04662 6.22247 2.48107 5.77445V4.49667C2.48954 2.01232 4.54722 0 7.07063 0C9.62791 0 11.6856 2.01232 11.6856 4.49667ZM7.08757 1.4492C8.80653 1.4492 10.2037 2.8156 10.2037 4.49667V5.59475H3.96294V4.48011C3.97141 2.80731 5.3686 1.4492 7.08757 1.4492ZM7.82427 12.0458C7.82427 12.4516 7.49402 12.7745 7.0791 12.7745C6.67264 12.7745 6.3424 12.4516 6.3424 12.0458V10.2074C6.3424 9.80986 6.67264 9.4869 7.0791 9.4869C7.49402 9.4869 7.82427 9.80986 7.82427 10.2074V12.0458Z" fill="#9E9E9E"/>
</svg>
