<?xml version="1.0" standalone="no"?>
<!DOCTYPE svg PUBLIC "-//W3C//DTD SVG 20010904//EN"
 "http://www.w3.org/TR/2001/REC-SVG-20010904/DTD/svg10.dtd">
<svg version="1.0" xmlns="http://www.w3.org/2000/svg"
 width="512.000000pt" height="512.000000pt" viewBox="0 0 512.000000 512.000000"
 preserveAspectRatio="xMidYMid meet">

<g transform="translate(0.000000,512.000000) scale(0.100000,-0.100000)"
fill="#000000" stroke="none">
<path d="M757 5109 c-102 -24 -353 -196 -499 -342 -109 -109 -190 -269 -231
-457 -31 -140 -30 -434 2 -613 208 -1182 1283 -2543 2576 -3264 560 -312 1160
-473 1582 -424 336 39 524 150 738 436 185 247 220 351 180 524 -24 99 -58
151 -179 269 -192 186 -377 334 -611 488 -255 167 -320 194 -475 194 -95 0
-176 -18 -248 -54 -67 -34 -208 -145 -336 -266 -122 -115 -168 -141 -268 -148
-114 -8 -169 18 -393 187 -352 266 -700 613 -957 956 -169 226 -194 279 -186
393 7 100 33 146 148 268 198 211 286 341 311 463 17 82 7 243 -20 313 -27 71
-156 277 -281 450 -180 248 -448 541 -537 587 -91 46 -221 62 -316 40z"/>
</g>
</svg>
