<svg width="18" height="25" viewBox="0 0 18 25" fill="none" xmlns="http://www.w3.org/2000/svg">
<path fill-rule="evenodd" clip-rule="evenodd" d="M8.8188 23.2722C4.51168 23.2722 0.833496 22.602 0.833496 19.9177C0.833496 17.2335 4.48834 14.7556 8.8188 14.7556C13.1259 14.7556 16.8041 17.2095 16.8041 19.8937C16.8041 22.5769 13.1493 23.2722 8.8188 23.2722Z" stroke="#424242" stroke-width="1.5" stroke-linecap="round" stroke-linejoin="round"/>
<path fill-rule="evenodd" clip-rule="evenodd" d="M8.81041 11.0359C11.6369 11.0359 13.9278 8.74499 13.9278 5.91847C13.9278 3.09196 11.6369 0.799988 8.81041 0.799988C5.98389 0.799988 3.69192 3.09196 3.69192 5.91847C3.68238 8.73544 5.95738 11.0264 8.77435 11.0359C8.78708 11.0359 8.79874 11.0359 8.81041 11.0359Z" stroke="#424242" stroke-width="1.5" stroke-linecap="round" stroke-linejoin="round"/>
</svg>
