<svg width="26" height="26" viewBox="0 0 26 26" fill="none" xmlns="http://www.w3.org/2000/svg">
<path d="M25.1875 22.75C24.9674 22.75 24.777 22.6696 24.6162 22.5088C24.4554 22.348 24.375 22.1576 24.375 21.9375C24.375 21.7174 24.4554 21.527 24.6162 21.3662C24.777 21.2054 24.9674 21.125 25.1875 21.125C25.4075 21.125 25.598 21.2054 25.7588 21.3662C25.9196 21.527 26 21.7174 26 21.9375C26 22.1576 25.9196 22.348 25.7588 22.5088C25.598 22.6696 25.4075 22.75 25.1875 22.75ZM25.1875 16.25C24.9674 16.25 24.777 16.1696 24.6162 16.0088C24.4554 15.848 24.375 15.6576 24.375 15.4375V13.8125C24.375 13.5924 24.4554 13.402 24.6162 13.2412C24.777 13.0804 24.9674 13 25.1875 13C25.4075 13 25.598 13.0804 25.7588 13.2412C25.9196 13.402 26 13.5924 26 13.8125V15.4375C26 15.6576 25.9196 15.848 25.7588 16.0088C25.598 16.1696 25.4075 16.25 25.1875 16.25ZM25.1875 9.75H24.375V10.5625C24.375 10.7826 24.2946 10.973 24.1338 11.1338C23.973 11.2946 23.7825 11.375 23.5625 11.375C23.3424 11.375 23.152 11.2946 22.9912 11.1338C22.8304 10.973 22.75 10.7826 22.75 10.5625V9.75H19.5V10.5625C19.5 10.7826 19.4196 10.973 19.2588 11.1338C19.098 11.2946 18.9076 11.375 18.6875 11.375H17.875V12.1875C17.875 12.4076 17.7946 12.598 17.6338 12.7588C17.473 12.9196 17.2826 13 17.0625 13C16.8424 13 16.652 12.9196 16.4912 12.7588C16.3304 12.598 16.25 12.4076 16.25 12.1875V6.5H13.8125C13.5924 6.5 13.402 6.4196 13.2412 6.25879C13.0804 6.09798 13 5.90755 13 5.6875C13 5.46745 13.0804 5.27702 13.2412 5.11621C13.402 4.9554 13.5924 4.875 13.8125 4.875H16.25V1.625H14.625V2.4375C14.625 2.65755 14.5446 2.84798 14.3838 3.00879C14.223 3.1696 14.0325 3.25 13.8125 3.25C13.5924 3.25 13.402 3.1696 13.2412 3.00879C13.0804 2.84798 13 2.65755 13 2.4375V0.8125C13 0.592448 13.0804 0.402018 13.2412 0.241211C13.402 0.0804036 13.5924 0 13.8125 0H25.1875C25.4075 0 25.598 0.0804036 25.7588 0.241211C25.9196 0.402018 26 0.592448 26 0.8125V8.9375C26 9.15755 25.9196 9.34798 25.7588 9.50879C25.598 9.6696 25.4075 9.75 25.1875 9.75ZM24.375 2.4375C24.375 2.21745 24.2946 2.02702 24.1338 1.86621C23.973 1.7054 23.7825 1.625 23.5625 1.625H18.6875C18.4674 1.625 18.277 1.7054 18.1162 1.86621C17.9554 2.02702 17.875 2.21745 17.875 2.4375V7.3125C17.875 7.53255 17.9554 7.72298 18.1162 7.88379C18.277 8.0446 18.4674 8.125 18.6875 8.125H23.5625C23.7825 8.125 23.973 8.0446 24.1338 7.88379C24.2946 7.72298 24.375 7.53255 24.375 7.3125V2.4375ZM21.9375 6.5H20.3125C20.0924 6.5 19.902 6.4196 19.7412 6.25879C19.5804 6.09798 19.5 5.90755 19.5 5.6875V4.0625C19.5 3.84245 19.5804 3.65202 19.7412 3.49121C19.902 3.3304 20.0924 3.25 20.3125 3.25H21.9375C22.1575 3.25 22.348 3.3304 22.5088 3.49121C22.6696 3.65202 22.75 3.84245 22.75 4.0625V5.6875C22.75 5.90755 22.6696 6.09798 22.5088 6.25879C22.348 6.4196 22.1575 6.5 21.9375 6.5ZM13 8.125H13.8125C14.0325 8.125 14.223 8.2054 14.3838 8.36621C14.5446 8.52702 14.625 8.71745 14.625 8.9375C14.625 9.15755 14.5446 9.34798 14.3838 9.50879C14.223 9.6696 14.0325 9.75 13.8125 9.75H11.375V10.5625C11.375 10.7826 11.2946 10.973 11.1338 11.1338C10.973 11.2946 10.7825 11.375 10.5625 11.375C10.3424 11.375 10.152 11.2946 9.99121 11.1338C9.8304 10.973 9.75 10.7826 9.75 10.5625V9.75H4.875V11.375H6.5V10.5625C6.5 10.3424 6.5804 10.152 6.74121 9.99121C6.90202 9.8304 7.09245 9.75 7.3125 9.75C7.53255 9.75 7.72298 9.8304 7.88379 9.99121C8.0446 10.152 8.125 10.3424 8.125 10.5625V13H8.9375C9.15755 13 9.34798 13.0804 9.50879 13.2412C9.6696 13.402 9.75 13.5924 9.75 13.8125C9.75 14.0326 9.6696 14.223 9.50879 14.3838C9.34798 14.5446 9.15755 14.625 8.9375 14.625H7.3125C7.09245 14.625 6.90202 14.5446 6.74121 14.3838C6.5804 14.223 6.5 14.0326 6.5 13.8125V13H4.0625C3.84245 13 3.65202 12.9281 3.49121 12.7842C3.3304 12.6403 3.25 12.4668 3.25 12.2637V9.75H1.625V10.6387C1.625 10.8418 1.5446 11.0153 1.38379 11.1592C1.22298 11.3031 1.03255 11.375 0.8125 11.375C0.592448 11.375 0.402018 11.3031 0.241211 11.1592C0.0804036 11.0153 0 10.8418 0 10.6387V9.11523C0 9.08138 0.00846354 9.04753 0.0253906 9.01367C0.0253906 8.99675 0.0211589 8.98405 0.0126953 8.97559C0.00423177 8.96712 0 8.95443 0 8.9375V0.8125C0 0.592448 0.0804036 0.402018 0.241211 0.241211C0.402018 0.0804036 0.592448 0 0.8125 0H8.9375C9.15755 0 9.34798 0.0804036 9.50879 0.241211C9.6696 0.402018 9.75 0.592448 9.75 0.8125V1.625H10.5625C10.7825 1.625 10.973 1.7054 11.1338 1.86621C11.2946 2.02702 11.375 2.21745 11.375 2.4375C11.375 2.65755 11.2946 2.84798 11.1338 3.00879C10.973 3.1696 10.7825 3.25 10.5625 3.25H9.75V4.875H10.5625C10.7825 4.875 10.973 4.9554 11.1338 5.11621C11.2946 5.27702 11.375 5.46745 11.375 5.6875C11.375 5.90755 11.2946 6.09798 11.1338 6.25879C10.973 6.4196 10.7825 6.5 10.5625 6.5H9.75V8.125H11.375V7.3125C11.375 7.09245 11.4554 6.90202 11.6162 6.74121C11.777 6.5804 11.9674 6.5 12.1875 6.5C12.4075 6.5 12.598 6.5804 12.7588 6.74121C12.9196 6.90202 13 7.09245 13 7.3125V8.125ZM8.125 2.4375C8.125 2.21745 8.0446 2.02702 7.88379 1.86621C7.72298 1.7054 7.53255 1.625 7.3125 1.625H2.4375C2.21745 1.625 2.02702 1.7054 1.86621 1.86621C1.7054 2.02702 1.625 2.21745 1.625 2.4375V7.3125C1.625 7.53255 1.7054 7.72298 1.86621 7.88379C2.02702 8.0446 2.21745 8.125 2.4375 8.125H7.3125C7.53255 8.125 7.72298 8.0446 7.88379 7.88379C8.0446 7.72298 8.125 7.53255 8.125 7.3125V2.4375ZM5.6875 6.5H4.0625C3.84245 6.5 3.65202 6.4196 3.49121 6.25879C3.3304 6.09798 3.25 5.90755 3.25 5.6875V4.0625C3.25 3.84245 3.3304 3.65202 3.49121 3.49121C3.65202 3.3304 3.84245 3.25 4.0625 3.25H5.6875C5.90755 3.25 6.09798 3.3304 6.25879 3.49121C6.4196 3.65202 6.5 3.84245 6.5 4.0625V5.6875C6.5 5.90755 6.4196 6.09798 6.25879 6.25879C6.09798 6.4196 5.90755 6.5 5.6875 6.5ZM0.8125 13C1.03255 13 1.22298 13.0804 1.38379 13.2412C1.5446 13.402 1.625 13.5924 1.625 13.8125C1.625 14.0326 1.5446 14.223 1.38379 14.3838C1.22298 14.5446 1.03255 14.625 0.8125 14.625C0.592448 14.625 0.402018 14.5446 0.241211 14.3838C0.0804036 14.223 0 14.0326 0 13.8125C0 13.5924 0.0804036 13.402 0.241211 13.2412C0.402018 13.0804 0.592448 13 0.8125 13ZM12.1875 14.625C11.9674 14.625 11.777 14.5446 11.6162 14.3838C11.4554 14.223 11.375 14.0326 11.375 13.8125C11.375 13.5924 11.4554 13.402 11.6162 13.2412C11.777 13.0804 11.9674 13 12.1875 13C12.4075 13 12.598 13.0804 12.7588 13.2412C12.9196 13.402 13 13.5924 13 13.8125C13 14.0326 12.9196 14.223 12.7588 14.3838C12.598 14.5446 12.4075 14.625 12.1875 14.625ZM13.8125 11.375C14.0325 11.375 14.223 11.4554 14.3838 11.6162C14.5446 11.777 14.625 11.9674 14.625 12.1875C14.625 12.4076 14.5446 12.598 14.3838 12.7588C14.223 12.9196 14.0325 13 13.8125 13C13.5924 13 13.402 12.9196 13.2412 12.7588C13.0804 12.598 13 12.4076 13 12.1875C13 11.9674 13.0804 11.777 13.2412 11.6162C13.402 11.4554 13.5924 11.375 13.8125 11.375ZM19.5 12.1875C19.5 11.9674 19.5804 11.777 19.7412 11.6162C19.902 11.4554 20.0924 11.375 20.3125 11.375C20.5325 11.375 20.723 11.4554 20.8838 11.6162C21.0446 11.777 21.125 11.9674 21.125 12.1875C21.125 12.4076 21.0446 12.598 20.8838 12.7588C20.723 12.9196 20.5325 13 20.3125 13C20.0924 13 19.902 12.9196 19.7412 12.7588C19.5804 12.598 19.5 12.4076 19.5 12.1875ZM0.8125 16.25H3.25V15.4375C3.25 15.2174 3.3304 15.027 3.49121 14.8662C3.65202 14.7054 3.84245 14.625 4.0625 14.625C4.28255 14.625 4.47298 14.7054 4.63379 14.8662C4.7946 15.027 4.875 15.2174 4.875 15.4375V16.25H8.9375C9.15755 16.25 9.34798 16.3304 9.50879 16.4912C9.6696 16.652 9.75 16.8424 9.75 17.0625V15.4375C9.75 15.2174 9.8304 15.027 9.99121 14.8662C10.152 14.7054 10.3424 14.625 10.5625 14.625C10.7825 14.625 10.973 14.7054 11.1338 14.8662C11.2946 15.027 11.375 15.2174 11.375 15.4375V17.0625H14.625V15.4375C14.625 15.2174 14.7054 15.027 14.8662 14.8662C15.027 14.7054 15.2174 14.625 15.4375 14.625H21.125V13.8125C21.125 13.5924 21.2054 13.402 21.3662 13.2412C21.527 13.0804 21.7174 13 21.9375 13C22.1575 13 22.348 13.0804 22.5088 13.2412C22.6696 13.402 22.75 13.5924 22.75 13.8125V17.875H23.5625C23.7825 17.875 23.973 17.9554 24.1338 18.1162C24.2946 18.277 24.375 18.4674 24.375 18.6875C24.375 18.9076 24.2946 19.098 24.1338 19.2588C23.973 19.4196 23.7825 19.5 23.5625 19.5H22.75V21.9375C22.75 22.1576 22.6696 22.348 22.5088 22.5088C22.348 22.6696 22.1575 22.75 21.9375 22.75H19.5V25.1875C19.5 25.4076 19.4196 25.598 19.2588 25.7588C19.098 25.9196 18.9076 26 18.6875 26C18.4674 26 18.277 25.9196 18.1162 25.7588C17.9554 25.598 17.875 25.4076 17.875 25.1875V22.75H16.25V23.5625C16.25 23.7826 16.1696 23.973 16.0088 24.1338C15.848 24.2946 15.6575 24.375 15.4375 24.375C15.2174 24.375 15.027 24.2946 14.8662 24.1338C14.7054 23.973 14.625 23.7826 14.625 23.5625V22.75H13.8125C13.5924 22.75 13.402 22.6696 13.2412 22.5088C13.0804 22.348 13 22.1576 13 21.9375C13 21.7174 13.0804 21.527 13.2412 21.3662C13.402 21.2054 13.5924 21.125 13.8125 21.125H14.625V18.6875H9.75V22.75H10.5625C10.7825 22.75 10.973 22.8304 11.1338 22.9912C11.2946 23.152 11.375 23.3424 11.375 23.5625C11.375 23.7826 11.2946 23.973 11.1338 24.1338C10.973 24.2946 10.7825 24.375 10.5625 24.375H9.75V25.1875C9.75 25.4076 9.6696 25.598 9.50879 25.7588C9.34798 25.9196 9.15755 26 8.9375 26H0.8125C0.592448 26 0.402018 25.9196 0.241211 25.7588C0.0804036 25.598 0 25.4076 0 25.1875V17.0625C0 16.8424 0.0804036 16.652 0.241211 16.4912C0.402018 16.3304 0.592448 16.25 0.8125 16.25ZM17.0625 21.125H20.3125C20.5325 21.125 20.723 21.0446 20.8838 20.8838C21.0446 20.723 21.125 20.5326 21.125 20.3125V17.0625C21.125 16.8424 21.0446 16.652 20.8838 16.4912C20.723 16.3304 20.5325 16.25 20.3125 16.25H17.0625C16.8424 16.25 16.652 16.3304 16.4912 16.4912C16.3304 16.652 16.25 16.8424 16.25 17.0625V20.3125C16.25 20.5326 16.3304 20.723 16.4912 20.8838C16.652 21.0446 16.8424 21.125 17.0625 21.125ZM1.625 23.5625C1.625 23.7826 1.7054 23.973 1.86621 24.1338C2.02702 24.2946 2.21745 24.375 2.4375 24.375H7.3125C7.53255 24.375 7.72298 24.2946 7.88379 24.1338C8.0446 23.973 8.125 23.7826 8.125 23.5625V18.6875C8.125 18.4674 8.0446 18.277 7.88379 18.1162C7.72298 17.9554 7.53255 17.875 7.3125 17.875H2.4375C2.21745 17.875 2.02702 17.9554 1.86621 18.1162C1.7054 18.277 1.625 18.4674 1.625 18.6875V23.5625ZM4.0625 19.5H5.6875C5.90755 19.5 6.09798 19.5804 6.25879 19.7412C6.4196 19.902 6.5 20.0924 6.5 20.3125V21.9375C6.5 22.1576 6.4196 22.348 6.25879 22.5088C6.09798 22.6696 5.90755 22.75 5.6875 22.75H4.0625C3.84245 22.75 3.65202 22.6696 3.49121 22.5088C3.3304 22.348 3.25 22.1576 3.25 21.9375V20.3125C3.25 20.0924 3.3304 19.902 3.49121 19.7412C3.65202 19.5804 3.84245 19.5 4.0625 19.5ZM18.6875 17.875C18.9076 17.875 19.098 17.9554 19.2588 18.1162C19.4196 18.277 19.5 18.4674 19.5 18.6875C19.5 18.9076 19.4196 19.098 19.2588 19.2588C19.098 19.4196 18.9076 19.5 18.6875 19.5C18.4674 19.5 18.277 19.4196 18.1162 19.2588C17.9554 19.098 17.875 18.9076 17.875 18.6875C17.875 18.4674 17.9554 18.277 18.1162 18.1162C18.277 17.9554 18.4674 17.875 18.6875 17.875ZM12.1875 19.5C12.4075 19.5 12.598 19.5804 12.7588 19.7412C12.9196 19.902 13 20.0924 13 20.3125C13 20.5326 12.9196 20.723 12.7588 20.8838C12.598 21.0446 12.4075 21.125 12.1875 21.125C11.9674 21.125 11.777 21.0446 11.6162 20.8838C11.4554 20.723 11.375 20.5326 11.375 20.3125C11.375 20.0924 11.4554 19.902 11.6162 19.7412C11.777 19.5804 11.9674 19.5 12.1875 19.5ZM13.8125 24.375C14.0325 24.375 14.223 24.4554 14.3838 24.6162C14.5446 24.777 14.625 24.9674 14.625 25.1875C14.625 25.4076 14.5446 25.598 14.3838 25.7588C14.223 25.9196 14.0325 26 13.8125 26C13.5924 26 13.402 25.9196 13.2412 25.7588C13.0804 25.598 13 25.4076 13 25.1875C13 24.9674 13.0804 24.777 13.2412 24.6162C13.402 24.4554 13.5924 24.375 13.8125 24.375ZM21.9375 24.375H22.75V23.5625C22.75 23.3424 22.8304 23.152 22.9912 22.9912C23.152 22.8304 23.3424 22.75 23.5625 22.75C23.7825 22.75 23.973 22.8304 24.1338 22.9912C24.2946 23.152 24.375 23.3424 24.375 23.5625V24.375H25.1875C25.4075 24.375 25.598 24.4554 25.7588 24.6162C25.9196 24.777 26 24.9674 26 25.1875C26 25.4076 25.9196 25.598 25.7588 25.7588C25.598 25.9196 25.4075 26 25.1875 26H21.9375C21.7174 26 21.527 25.9196 21.3662 25.7588C21.2054 25.598 21.125 25.4076 21.125 25.1875C21.125 24.9674 21.2054 24.777 21.3662 24.6162C21.527 24.4554 21.7174 24.375 21.9375 24.375Z" fill="#0A59A1"/>
</svg>
