<svg width="24" height="24" viewBox="0 0 24 24" fill="none" xmlns="http://www.w3.org/2000/svg">
<path d="M18.5466 16.9557L23.5017 21.9228L21.8647 23.5642L16.9107 18.596C15.0675 20.0775 12.7747 20.8834 10.4123 20.88C4.66471 20.88 0 16.2029 0 10.44C0 4.67712 4.66471 0 10.4123 0C16.1599 0 20.8246 4.67712 20.8246 10.44C20.828 12.8087 20.0243 15.1075 18.5466 16.9557ZM16.2258 16.095C17.6941 14.5811 18.5141 12.5517 18.5108 10.44C18.5108 5.95312 14.8861 2.32 10.4123 2.32C5.93733 2.32 2.31385 5.95312 2.31385 10.44C2.31385 14.9257 5.93733 18.56 10.4123 18.56C12.5184 18.5633 14.5424 17.7412 16.0523 16.269L16.2258 16.095Z" fill="#0A5AA2"/>
</svg>
