<svg width="30" height="30" viewBox="0 0 30 30" fill="none" xmlns="http://www.w3.org/2000/svg">
<path d="M29.9058 13.3347C29.8584 12.9131 29.3666 12.5959 28.9413 12.5959C27.5668 12.5959 26.347 11.7891 25.8354 10.5405C25.3132 9.26194 25.6501 7.77111 26.6742 6.83166C26.8295 6.68949 26.9253 6.4938 26.9423 6.28391C26.9592 6.07402 26.8961 5.86548 26.7656 5.70021C26.0674 4.81247 25.2701 4.00729 24.3893 3.30029C24.0477 3.02628 23.5457 3.06442 23.2493 3.39253C22.3552 4.3827 20.7492 4.75064 19.5081 4.23285C18.217 3.68964 17.4021 2.38095 17.4821 0.976266C17.4948 0.763719 17.4255 0.554414 17.2885 0.3914C17.1515 0.228387 16.9573 0.124059 16.7457 0.0998766C15.6252 -0.0298628 14.4947 -0.0336252 13.3709 0.0910543C13.1618 0.114275 12.9691 0.215604 12.8314 0.374773C12.6937 0.533943 12.6212 0.739218 12.6284 0.94954C12.6771 2.34048 11.8529 3.62606 10.5743 4.14982C9.34816 4.65074 7.75326 4.28553 6.86103 3.30405C6.71898 3.14858 6.52348 3.05244 6.31362 3.03486C6.10375 3.01728 5.89498 3.07954 5.72904 3.20921C4.83105 3.91344 4.01687 4.71842 3.30249 5.60835C3.16956 5.77401 3.1048 5.98413 3.12141 6.19588C3.13801 6.40763 3.23475 6.60508 3.39188 6.74798C4.43617 7.69365 4.77285 9.19733 4.23066 10.4908C3.71299 11.724 2.43258 12.5184 0.966895 12.5184C0.491265 12.5031 0.15277 12.8226 0.100225 13.2552C-0.0312476 14.3882 -0.0333805 15.5324 0.093868 16.6659C0.141223 17.0894 0.647603 17.4039 1.07756 17.4039C2.38406 17.3707 3.63761 18.1789 4.16423 19.4591C4.68826 20.7376 4.35093 22.2278 3.3252 23.1686C3.00435 23.4635 2.96335 23.9561 3.23425 24.2985C3.93163 25.186 4.72759 25.9915 5.60682 26.6993C5.77273 26.8328 5.98342 26.8978 6.19572 26.881C6.40802 26.8642 6.60585 26.7668 6.74867 26.6089C7.64622 25.6164 9.25203 25.2491 10.4881 25.7679C11.7829 26.3097 12.5974 27.6182 12.5179 29.0233C12.5053 29.2358 12.5745 29.445 12.7114 29.608C12.8482 29.771 13.0423 29.8754 13.2538 29.8997C13.8272 29.9668 14.4037 30 14.9819 30C15.5307 30 16.0796 29.97 16.6286 29.9089C16.8378 29.8857 17.0306 29.7843 17.1682 29.625C17.3059 29.4657 17.3782 29.2603 17.3708 29.0499C17.3206 27.6596 18.1466 26.3739 19.4236 25.8512C20.6579 25.347 22.2457 25.716 23.1385 26.6961C23.2808 26.8512 23.4762 26.947 23.686 26.9646C23.8957 26.9821 24.1044 26.9201 24.2705 26.7908C25.1683 26.0864 25.9825 25.2814 26.697 24.3915C26.8304 24.2259 26.8954 24.0156 26.8788 23.8037C26.8622 23.5917 26.7652 23.3941 26.6076 23.2513C25.5636 22.3063 25.2251 20.802 25.7673 19.5098C26.2769 18.2932 27.5097 17.4764 28.8357 17.4764L29.0212 17.4813C29.4517 17.5162 29.8472 17.1847 29.8993 16.7456C30.0314 15.6126 30.0335 14.4682 29.9058 13.3347ZM14.9999 23.6477C10.2238 23.6477 6.35219 19.7761 6.35219 15.0002C6.35219 10.2242 10.2239 6.35267 14.9999 6.35267C19.776 6.35267 23.6477 10.2242 23.6477 15.0002C23.6477 16.6213 23.2007 18.1375 22.4245 19.4342L18.6379 15.6475C18.9153 14.9926 19.0577 14.2884 19.0567 13.5772C19.0567 12.1611 18.5052 10.8298 17.5037 9.82864C16.5025 8.82744 15.1712 8.27605 13.7553 8.27605C13.2828 8.27605 12.8125 8.33885 12.3575 8.46275C12.2582 8.49088 12.1677 8.54415 12.095 8.61742C12.0222 8.69069 11.9696 8.78148 11.9422 8.88103C11.888 9.08524 11.9491 9.29451 12.1087 9.45422C12.1087 9.45422 13.9781 11.338 14.6036 11.9634C14.6691 12.0289 14.669 12.1852 14.6598 12.2415L14.6539 12.2827C14.5909 12.9703 14.4693 13.7957 14.369 14.1129C14.3555 14.1263 14.3428 14.1375 14.3291 14.1513C14.3147 14.1657 14.3014 14.1796 14.2875 14.1939C13.9662 14.297 13.128 14.42 12.4295 14.4825L12.4296 14.4788L12.3982 14.4867C12.3884 14.4877 12.3785 14.4882 12.3685 14.4881C12.293 14.4881 12.182 14.467 12.081 14.3661C11.43 13.7151 9.63385 11.9318 9.63385 11.9318C9.47272 11.7712 9.30743 11.7375 9.19728 11.7375C8.94052 11.7375 8.71062 11.923 8.63822 12.1891C8.14378 14.0188 8.66793 15.987 10.0065 17.3256C11.0079 18.327 12.3393 18.8784 13.7555 18.8784C14.4667 18.8793 15.1707 18.7369 15.8256 18.4596L19.6534 22.2873C18.2647 23.1774 16.6494 23.6496 14.9999 23.6477Z" fill="white"/>
</svg>
