<svg width="35" height="15" viewBox="0 0 35 15" fill="none" xmlns="http://www.w3.org/2000/svg">
<path d="M4.77273 4.44737H4.9527L5.09139 4.33266L9.72543 0.5H17.3828L31.5879 7.54915C31.8201 7.67495 32.0437 7.78998 32.2576 7.90002C32.8008 8.17949 33.2814 8.42675 33.682 8.73638C34.1996 9.13654 34.5 9.58367 34.5 10.2632V11.3421H31.5318H31.178L31.0603 11.6758C30.4634 13.3684 28.8562 14.5 27.0455 14.5C25.2355 14.5 23.6259 13.3687 23.0135 11.6723L22.8942 11.3421H22.5432H12.4409H12.0871L11.9694 11.6758C11.3725 13.3684 9.76524 14.5 7.95455 14.5C6.14456 14.5 4.53504 13.3687 3.92256 11.6723L3.80334 11.3421H3.45227H0.5V7.10526C0.5 5.63233 1.68849 4.44737 3.18182 4.44737H4.77273ZM6.43058 5.15137L5.43881 6.02632H6.76136H23.0682L23.2904 5.07843L16.9268 1.92054L16.8218 1.86842H16.7045H10.3409H10.1519L10.0101 1.99347L6.43058 5.15137ZM9.99418 8.23355C9.45259 7.69603 8.71884 7.39474 7.95455 7.39474C7.19025 7.39474 6.4565 7.69603 5.91491 8.23355C5.3732 8.77118 5.06818 9.50118 5.06818 10.2632C5.06818 11.0251 5.3732 11.7551 5.91491 12.2928C6.4565 12.8303 7.19025 13.1316 7.95455 13.1316C8.71885 13.1316 9.45259 12.8303 9.99418 12.2928C10.5359 11.7551 10.8409 11.0251 10.8409 10.2632C10.8409 9.50118 10.5359 8.77118 9.99418 8.23355ZM29.0851 8.23355C28.5435 7.69603 27.8098 7.39474 27.0455 7.39474C26.2812 7.39474 25.5474 7.69603 25.0058 8.23355C24.4641 8.77118 24.1591 9.50118 24.1591 10.2632C24.1591 11.0251 24.4641 11.7551 25.0058 12.2928C25.5474 12.8303 26.2812 13.1316 27.0455 13.1316C27.8098 13.1316 28.5435 12.8303 29.0851 12.2928C29.6268 11.7551 29.9318 11.0251 29.9318 10.2632C29.9318 9.50118 29.6268 8.77118 29.0851 8.23355Z" stroke="black"/>
</svg>
