<svg width="21" height="24" viewBox="0 0 21 24" fill="none" xmlns="http://www.w3.org/2000/svg">
<path d="M11.1398 11.5608C9.55162 11.5608 8.17631 10.9912 7.05259 9.86725C5.92886 8.74357 5.35924 7.36864 5.35924 5.78025C5.35924 4.19233 5.92886 2.81726 7.05278 1.69316C8.17669 0.569619 9.5518 -1.00083e-06 11.1398 -8.62004e-07C12.7283 -7.23138e-07 14.1032 0.56962 15.2269 1.69335C16.3506 2.81707 16.9204 4.19219 16.9204 5.78025C16.9204 7.36864 16.3506 8.74376 15.2267 9.86748C14.1028 10.991 12.7277 11.5608 11.1398 11.5608ZM1.02535 18.4547C1.05779 17.9871 1.12332 17.4769 1.21984 16.9382C1.31724 16.3955 1.44263 15.8824 1.59282 15.4135C1.74788 14.9288 1.95882 14.4502 2.21953 13.9915C2.49019 13.5155 2.80804 13.1009 3.16476 12.7598C3.53774 12.4029 3.99439 12.116 4.52248 11.9067C5.0487 11.6985 5.63191 11.5931 6.25572 11.5931C6.50073 11.5931 6.73764 11.6936 7.19523 11.9915C7.5205 12.2033 7.84673 12.4136 8.17392 12.6224C8.48831 12.8228 8.91421 13.0105 9.44029 13.1804C9.95352 13.3465 10.4746 13.4307 10.989 13.4307C11.5033 13.4307 12.0243 13.3465 12.538 13.1804C13.0635 13.0106 13.4894 12.823 13.8035 12.6226C14.1677 12.3899 14.4972 12.1775 14.7831 11.9913C15.2401 11.6934 15.4772 11.5928 15.7222 11.5928C16.3462 11.5928 16.9292 11.6985 17.4553 11.9069C17.983 12.1158 18.4398 12.4027 18.8132 12.76C19.1697 13.1013 19.4877 13.5156 19.758 13.9915C20.0185 14.4502 20.2295 14.9286 20.3848 15.4137C20.5348 15.8826 20.6602 16.3955 20.7576 16.9382C20.8541 17.4762 20.9196 17.9865 20.952 18.4552C20.9843 18.927 21.0003 19.3996 21 19.8725C21 21.1253 20.6017 22.1395 19.8164 22.8874C19.0408 23.6256 18.0145 24 16.7665 24L5.21037 24C3.96233 24 2.93643 23.6257 2.16061 22.8875C1.37509 22.14 0.976839 21.1256 0.976839 19.8723C0.977026 19.3887 0.993292 18.9117 1.02535 18.4547Z" fill="white"/>
</svg>
